<?xml version="1.0" standalone="no"?>
<!DOCTYPE svg PUBLIC "-//W3C//DTD SVG 20010904//EN"
 "http://www.w3.org/TR/2001/REC-SVG-20010904/DTD/svg10.dtd">
<svg version="1.0" xmlns="http://www.w3.org/2000/svg"
 width="200.000000pt" height="200.000000pt" viewBox="0 0 200.000000 200.000000"
 preserveAspectRatio="xMidYMid meet">

<g transform="translate(0.000000,200.000000) scale(0.100000,-0.100000)"
fill="#000000" stroke="none">
<path d="M122 931 c-10 -6 -8 -22 13 -74 15 -37 31 -65 35 -62 5 3 6 -4 3 -15
-3 -11 -1 -20 3 -20 5 0 24 37 42 82 26 64 31 83 20 89 -9 6 -18 -5 -32 -41
-10 -28 -22 -50 -26 -50 -4 0 -16 22 -26 50 -14 35 -23 47 -32 41z"/>
<path d="M303 925 c0 -8 4 -15 9 -15 4 0 8 -29 8 -65 0 -36 -4 -65 -10 -65 -5
0 -7 -7 -4 -15 4 -8 16 -15 29 -15 13 0 25 7 29 15 3 8 1 15 -4 15 -13 0 -13
116 0 141 10 17 7 19 -23 19 -23 0 -34 -5 -34 -15z"/>
<path d="M423 932 c-8 -5 -1 -32 25 -95 l36 -88 36 88 c24 57 33 90 27 95 -16
10 -22 3 -37 -42 -7 -23 -17 -43 -22 -46 -4 -3 -18 18 -30 45 -15 33 -27 48
-35 43z"/>
<path d="M615 845 l0 -95 26 0 c16 0 26 6 26 15 0 8 -4 15 -9 15 -4 0 -8 29
-8 65 0 36 4 65 8 65 5 0 9 7 9 15 0 9 -10 15 -26 15 l-26 0 0 -95z"/>
<path d="M720 845 l0 -95 39 0 c56 0 71 19 71 91 0 71 -21 99 -75 99 l-35 0 0
-95z m80 3 c-4 -56 -8 -63 -27 -66 -22 -3 -23 0 -23 62 0 59 2 65 23 68 12 2
24 3 27 2 3 -1 3 -31 0 -66z"/>
<path d="M882 931 c-10 -6 -8 -22 13 -74 15 -37 31 -65 35 -62 5 3 6 -4 3 -15
-3 -11 -1 -20 3 -20 5 0 24 37 42 82 26 64 31 83 20 89 -9 6 -18 -5 -32 -41
-10 -28 -22 -50 -26 -50 -4 0 -16 22 -26 50 -14 35 -23 47 -32 41z"/>
<path d="M1070 920 c-15 -15 -20 -33 -20 -78 0 -66 18 -92 61 -92 39 0 49 18
49 90 0 52 -4 71 -18 83 -25 22 -48 21 -72 -3z m60 -29 c12 -24 13 -81 1 -99
-5 -8 -17 -12 -27 -10 -15 2 -20 14 -22 51 -4 66 25 101 48 58z"/>
<path d="M1570 920 c-16 -16 -20 -33 -20 -79 0 -67 15 -91 59 -91 36 0 51 17
51 57 0 26 -4 33 -19 33 -10 0 -21 -7 -25 -15 -3 -8 -2 -15 3 -15 13 0 20 -39
9 -47 -7 -3 -8 -1 -4 5 5 8 0 12 -13 12 -27 0 -29 6 -32 75 -2 54 -1 60 17 57
10 -2 24 -9 29 -15 15 -18 35 -19 35 -3 0 16 -37 46 -57 46 -7 0 -22 -9 -33
-20z"/>
<path d="M1707 933 c-4 -3 -7 -46 -7 -95 l0 -88 49 0 c34 0 51 4 55 15 4 12
-3 15 -34 15 -36 0 -40 3 -40 25 0 21 5 25 28 25 19 0 29 5 29 15 0 10 -10 15
-29 15 -25 0 -29 4 -26 23 2 17 11 23 38 27 55 8 49 30 -8 30 -27 0 -52 -3
-55 -7z"/>
<path d="M1208 888 c3 -25 11 -44 23 -51 12 -8 19 -23 19 -43 0 -19 6 -34 15
-38 12 -4 15 3 15 30 0 21 9 47 20 61 22 29 28 85 8 81 -7 -2 -15 -16 -18 -33
-4 -22 -11 -31 -28 -33 -18 -3 -23 2 -28 27 -10 47 -30 46 -26 -1z"/>
<path d="M1415 886 c-10 -27 -25 -54 -32 -62 -16 -15 -27 -78 -13 -69 4 3 10
-1 13 -7 2 -7 8 -1 12 15 6 21 13 27 36 27 21 0 32 -7 43 -27 8 -16 15 -22 16
-15 0 7 4 11 8 8 4 -3 7 9 6 26 -1 17 -7 34 -13 37 -6 4 -21 31 -34 61 l-24
54 -18 -48z m21 -63 c-10 -10 -19 5 -10 18 6 11 8 11 12 0 2 -7 1 -15 -2 -18z"/>
</g>
</svg>
