<?xml version="1.0" standalone="no"?>
<!DOCTYPE svg PUBLIC "-//W3C//DTD SVG 20010904//EN"
 "http://www.w3.org/TR/2001/REC-SVG-20010904/DTD/svg10.dtd">
<svg version="1.0" xmlns="http://www.w3.org/2000/svg"
 width="200.000000pt" height="200.000000pt" viewBox="0 0 200.000000 200.000000"
 preserveAspectRatio="xMidYMid meet">

<g transform="translate(0.000000,200.000000) scale(0.100000,-0.100000)"
fill="#000000" stroke="none">
<path d="M785 1676 c-16 -7 -45 -32 -64 -56 -23 -29 -54 -51 -97 -70 -74 -34
-89 -55 -98 -133 -4 -38 -19 -82 -41 -124 -19 -37 -35 -71 -35 -78 0 -7 16
-41 35 -78 22 -42 37 -86 41 -124 9 -78 24 -99 97 -133 40 -18 79 -46 111 -80
l49 -53 66 8 c87 9 113 9 194 0 l67 -8 53 56 c34 37 71 64 109 81 68 29 84 52
93 131 5 40 19 81 41 121 19 33 34 69 34 79 0 10 -15 46 -34 79 -22 40 -36 81
-41 121 -9 80 -24 100 -101 137 -41 20 -76 45 -96 71 -47 59 -80 69 -159 51
-63 -15 -76 -14 -179 11 -8 2 -28 -2 -45 -9z m135 -256 c0 -6 -38 -10 -95 -10
-57 0 -95 4 -95 10 0 6 38 10 95 10 57 0 95 -4 95 -10z m170 0 c0 -5 -18 -10
-40 -10 -22 0 -40 5 -40 10 0 6 18 10 40 10 22 0 40 -4 40 -10z m100 0 c0 -5
-18 -10 -40 -10 -22 0 -40 -1 -40 -3 0 -2 -27 -77 -60 -167 -33 -90 -59 -168
-57 -173 1 -4 30 68 63 160 l61 168 34 2 c32 1 33 1 5 -5 -26 -7 -33 -18 -87
-167 -33 -88 -66 -179 -75 -202 -30 -81 -43 -63 -117 161 l-68 205 -37 4 c-31
4 -30 4 8 3 l44 -1 66 -200 c36 -110 70 -199 75 -197 15 3 29 53 17 61 -8 5
100 324 123 360 8 14 85 14 85 1z m-280 -205 c34 -102 60 -191 58 -197 -3 -7
-34 76 -71 185 -36 108 -62 197 -57 197 5 0 36 -83 70 -185z m-2 178 c-10 -2
-26 -2 -35 0 -10 3 -2 5 17 5 19 0 27 -2 18 -5z m160 0 c-10 -2 -26 -2 -35 0
-10 3 -2 5 17 5 19 0 27 -2 18 -5z m-203 -208 c32 -99 60 -187 63 -195 3 -10
2 -12 -6 -5 -10 9 -132 370 -132 390 0 31 25 -33 75 -190z"/>
<path d="M354 645 c-4 -9 -2 -21 4 -27 16 -16 47 -5 47 17 0 26 -42 34 -51 10z"/>
<path d="M614 645 c-4 -9 -2 -21 4 -27 15 -15 54 1 50 20 -4 23 -46 28 -54 7z"/>
<path d="M785 647 c-12 -10 -14 -16 -7 -21 22 -13 12 -31 -28 -48 -44 -18 -60
-53 -42 -93 10 -22 17 -24 81 -24 39 0 71 4 71 9 0 6 -4 10 -10 10 -6 0 -10
37 -10 90 0 80 -2 90 -18 90 -10 0 -26 -6 -37 -13z m3 -111 c6 -27 -6 -46 -23
-40 -15 6 -21 45 -8 58 11 10 28 1 31 -18z"/>
<path d="M110 630 c0 -5 4 -10 9 -10 5 0 23 -36 41 -81 30 -74 35 -80 59 -77
21 3 30 14 54 73 16 39 36 74 43 78 26 15 14 27 -26 27 -43 0 -45 -2 -29 -28
8 -13 6 -29 -9 -67 l-20 -50 -16 39 c-24 58 -30 86 -17 86 6 0 11 5 11 10 0 6
-22 10 -50 10 -27 0 -50 -4 -50 -10z"/>
<path d="M363 580 c-24 -10 -30 -25 -13 -35 6 -3 10 -17 10 -30 0 -13 -4 -27
-10 -30 -5 -3 -10 -10 -10 -16 0 -12 77 -12 85 1 3 6 1 10 -4 10 -7 0 -11 23
-11 55 0 58 -4 62 -47 45z"/>
<path d="M453 580 c-27 -11 -29 -23 -9 -40 8 -6 20 -27 26 -46 18 -53 48 -46
83 19 34 66 34 77 -2 77 -36 0 -49 -17 -26 -34 12 -9 15 -19 11 -34 -10 -30
-23 -20 -37 28 -13 43 -13 43 -46 30z"/>
<path d="M614 576 c-15 -12 -17 -17 -6 -27 14 -16 16 -55 2 -64 -22 -13 -8
-25 29 -25 l38 0 -4 53 c-7 83 -17 94 -59 63z"/>
<path d="M888 578 c-27 -9 -39 -28 -17 -28 5 0 19 -20 30 -45 27 -62 49 -59
88 10 34 60 33 75 -4 75 -31 0 -42 -18 -20 -34 15 -11 16 -16 5 -37 l-13 -24
-13 30 c-7 17 -13 35 -14 42 0 18 -12 21 -42 11z"/>
<path d="M1090 583 c-48 -18 -66 -75 -34 -107 23 -24 77 -20 102 7 50 53 0
125 -68 100z m40 -70 c0 -18 -5 -24 -17 -21 -19 4 -28 30 -19 55 9 23 36 -3
36 -34z"/>
<path d="M1213 580 c-26 -11 -29 -23 -9 -39 8 -6 19 -25 26 -40 9 -24 9 -35
-5 -61 -45 -87 42 -12 93 81 33 59 33 69 -4 69 -29 0 -38 -14 -23 -38 8 -13 9
-24 1 -37 -9 -17 -12 -15 -26 19 -9 21 -16 42 -16 47 0 11 -8 11 -37 -1z"/>
<path d="M1388 576 c-28 -21 -21 -32 17 -28 21 3 35 0 35 -7 0 -6 -15 -11 -34
-11 -36 0 -51 -18 -41 -51 5 -15 18 -18 75 -18 39 0 70 4 70 9 0 6 -4 10 -10
10 -5 0 -10 18 -10 39 0 30 -6 44 -22 55 -27 19 -57 20 -80 2z m47 -76 c-3 -5
-10 -10 -16 -10 -5 0 -9 5 -9 10 0 6 7 10 16 10 8 0 12 -4 9 -10z"/>
<path d="M1545 568 c-24 -21 -26 -27 -16 -46 6 -12 19 -22 27 -22 11 0 14 -5
10 -17 -5 -11 1 -23 16 -34 30 -23 16 -36 -16 -15 -33 21 -46 20 -46 -3 0 -45
116 -42 133 4 4 10 -4 20 -24 31 l-31 16 26 27 c14 15 26 32 26 38 0 6 6 13
13 16 20 7 5 15 -44 22 -40 6 -50 4 -74 -17z m55 -23 c10 -13 9 -15 -9 -15
-12 0 -21 6 -21 15 0 8 4 15 9 15 5 0 14 -7 21 -15z"/>
<path d="M1725 578 c-71 -38 -53 -118 26 -118 33 0 59 14 59 31 0 4 -15 5 -34
2 -19 -3 -36 -1 -40 6 -5 7 6 11 32 11 48 0 53 5 41 38 -16 42 -44 52 -84 30z
m43 -36 c2 -7 -6 -12 -17 -12 -21 0 -27 11 -14 24 9 9 26 2 31 -12z"/>
</g>
</svg>
